Patient4_TMGait_0pt8_01_left_43_EMG.mot
version=1
nRows=20
nColumns=33
inDegrees=no
endheader
time	1LAddLong	2LGlutMax	3LGlutMed	4LIliopsoas	5LSemiMemb	6LBicFemLong	7LRecFem	8LVastMed	9LVastLat	10LGasMed	11LTibAnt	12lTibPost	13LPeroneusLong	14LSol	15LExtDigLong	16LFlexDigLong	17RAddLong	18RGlutMax	19RGlutMed	20RIliopsoas	21RSemiMemb	22RBicFemLong	23RRecFem	24RVastMed	25RVastLat	26RGasMed	27RTibAnt	28RTibPost	29RPeroneusLong	30RSol	31RExtDigLong	32RFlexDigLong
48.505	0.011597	0.01297	0.26169	0.006256	-0.032501	0.14786	-0.39291	0.003357	-0.045166	-0.4042	-0.011597	-0.077972	0.14893	-0.10834	0.019684	0.4332	-0.10803	0.069122	0.020142	-0.009918	0.53406	-0.035706	-0.51636	0.8403	0.006104	-0.019836	-0.25772	-0.011597	-0.21729	0.14496	-0.003662	-0.013428
48.506	0.012817	0.028076	0.29724	0.015411	-0.029907	0.14557	-0.36453	0.001221	-0.037842	-0.28366	0.01236	-0.05127	0.076752	-0.24506	-0.050354	0.14084	-0.12054	0.15549	0.20981	-0.031281	0.15442	0.049286	-0.466	0.61966	-0.23132	-0.024109	-0.30609	-0.008087	-0.026855	0.10529	-0.005493	-0.006561
48.507	0.019989	0.030212	0.31097	0.000305	0.001984	0.059052	-0.37659	0.002136	-0.035706	-0.15915	0.000916	-0.055237	-0.019531	-0.053711	-0.069885	0.00885	-0.042877	0.11459	0.10208	-0.1152	0.25253	0.13412	-0.26215	0.58029	-0.36987	-0.026855	-0.29739	-0.008392	0.009308	0.084229	-0.003662	-0.013885
48.508	0.025024	0.085754	0.34195	0.004578	0.009918	-0.053864	-0.3508	0.004883	-0.0354	-0.039368	0.002136	0.003815	-0.055695	-0.43625	-0.007477	-0.003204	0.031128	-0.010223	-0.030975	-0.25848	0.35248	0.050659	-0.16861	0.21988	-0.39703	-0.027618	0.20264	-0.011292	0.13519	0.11581	-0.00351	-0.014191
48.509	0.027466	0.10925	0.32471	0.009918	0.010376	-0.20706	-0.3537	-0.002747	-0.041351	0.11353	-0.017242	0.007019	-0.051727	-0.54962	0.00885	-0.075836	0.10544	-0.12314	-0.088348	-0.19974	0.29037	0.12512	-0.20142	-0.086975	-0.29968	-0.036011	0.16113	-0.013885	0.11856	0.18448	-0.006714	-0.015564
48.51	0.037384	0.1088	0.33585	0.010681	0.011597	-0.2449	-0.33295	0.003357	-0.030823	0.22125	-0.036621	0.070801	-0.040283	-0.31189	0.019531	-0.012665	0.13367	-0.32562	-0.11322	-0.12039	0.24811	0.28107	-0.12711	-0.41153	-0.20966	-0.032654	-0.32745	-0.009766	0.26459	0.17807	-0.003052	-0.010681
48.511	0.02533	0.10712	0.32105	0.022736	0.016785	-0.22324	-0.33585	-0.000458	-0.036316	0.088806	-0.030212	-0.007477	-0.031738	0.30914	0.02533	-0.44647	0.14252	-0.33234	-0.26901	0.035706	0.13702	0.41855	-0.032959	-0.40756	-0.002747	-0.022888	-0.30701	-0.013733	0.23697	0.068207	-0.001373	-0.00473
48.512	0.029602	0.079651	0.31891	0.017242	0.030823	-0.17151	-0.33081	-0.010681	-0.037384	0.22964	-0.014343	0.27145	-0.048676	0.2652	-0.00946	0.21851	0.11307	-0.35553	-0.28168	0.27756	-0.099487	0.28091	-0.008392	-0.4422	0.11093	-0.023804	0.014954	-0.011902	0.24796	0.11078	-0.001678	-0.005951
48.513	0.045776	0.11948	0.32028	0.014496	0.015411	-0.12833	-0.33203	0.001373	-0.032654	-0.054626	-0.024872	0.074615	0.01297	0.31845	-0.023499	0.10849	0.091705	-0.33203	-0.31067	0.3952	-0.30975	0.054626	0.15106	-0.48874	0.088196	-0.027924	0.27603	-0.010986	-0.37262	0.095215	0.000916	-0.005493
48.514	0.080109	0.11261	0.31647	0.00351	0.018158	-0.073242	-0.31326	-0.004272	-0.030975	-0.34958	-0.013275	-0.083313	0.035095	0.57907	-0.000763	0.014038	0.076599	-0.40436	-0.054169	0.18341	-0.35446	-0.14297	0.20874	-0.16403	-0.022278	-0.029602	0.33951	-0.009308	-0.095215	0.07782	0.000458	-0.010529
48.515	0.059204	0.097351	0.32181	0.00473	0.014496	-0.032196	-0.29694	-0.003815	-0.024567	-0.64575	-0.008545	-0.009003	0.007935	0.035248	-0.001678	-0.13107	0.068054	-0.39856	0.067902	-0.012817	-0.37415	-0.41962	0.15839	-0.15243	-0.042267	-0.035858	0.67459	-0.015564	-0.53268	0.074615	0.00412	-0.010529
48.516	0.03418	0.027008	0.31693	0.019989	0.000763	0.10544	-0.31143	-0.007019	-0.02243	-0.5928	-0.00824	-0.072937	-0.022888	-0.38162	0.00473	-0.06897	0.054474	-0.29709	-0.089417	-0.10635	-0.066986	-0.64911	0.056763	-0.19272	-0.019684	-0.028992	0.87555	-0.012207	-0.42679	0.00946	-0.000153	-0.009613
48.517	0.016632	-0.042572	0.32654	0.008545	0	0.084686	-0.29175	0.000458	-0.019226	-0.33356	0.006561	-0.068054	-0.05188	-0.1886	-0.016785	0.10178	0.008698	-0.29602	-0.089264	-0.076904	-0.21484	-0.82886	-0.040436	-0.13992	-0.018463	-0.022888	0.56885	-0.015411	-0.010529	0.016632	-0.002289	-0.001678
48.518	0.022278	-0.12192	0.3212	-0.009003	-0.014496	0.061188	-0.29312	0.003967	-0.013123	0.024414	0.00824	-0.056	-0.003052	0.061493	-0.027924	0.070496	0.000763	-0.38284	-0.053253	0.010376	-0.16998	-1.0536	-0.16571	-0.16907	0.043488	-0.013428	0.056458	-0.015564	0.13123	0.027008	-0.002747	-0.00351
48.519	0.036163	-0.13489	0.35355	-0.001068	-0.011139	0.052338	-0.27847	0.00351	-0.02182	0.024719	0.012207	-0.035553	0.032959	0.22217	-0.020294	-0.04715	-0.027771	-0.35599	-0.055389	0.13992	0.29297	-0.96435	-0.32364	-0.056763	0.15579	-0.023346	-0.64056	-0.01297	0.16159	0.068512	-0.001526	-0.008087
48.52	0.039825	-0.16098	0.32684	-0.02121	-0.000458	0.00412	-0.27145	0.000916	-0.037079	0.11353	0.011597	-0.036163	0.042419	0.000916	-0.012817	-0.040894	-0.11032	-0.4068	-0.087433	0.24536	0.58472	-0.81772	-0.24994	0.15823	0.20737	-0.022583	-0.36728	-0.016327	-0.11093	0.12039	-0.002899	-0.00473
48.521	0.024719	-0.14191	0.3241	-0.009918	-0.004883	0.016327	-0.26459	0.003815	-0.043488	0.12528	0.012665	-0.041809	0.052185	-0.20462	0.006409	-0.024567	-0.10101	-0.39322	-0.026093	0.21698	0.15823	-0.72327	-0.23086	0.38177	0.25467	-0.023651	-0.012512	-0.014343	-0.72357	0.06134	-0.002899	-0.020447
48.522	0.022125	-0.092468	0.30228	0.002899	-0.033722	0.028534	-0.25955	-0.000153	-0.045929	0.54901	-0.012207	-0.03418	0.08606	-0.18372	0.003815	-0.024261	-0.067291	-0.48126	-0.049133	0.083771	0.36179	-0.37872	-0.15427	0.44861	0.50491	-0.01236	-0.51453	-0.014038	-0.76523	0.044403	-0.013733	-0.012512
48.523	0.020599	-0.097961	0.29343	0.00351	-0.045319	0.054626	-0.24887	0.005493	-0.046387	1.0852	-0.005493	-0.026398	0.012817	0.000153	0.003052	-0.17654	-0.022583	-0.45197	-0.053864	-0.046082	0.49698	-0.045929	-0.1442	0.29938	0.32303	-0.014343	-0.34058	-0.011749	0.52643	-0.04715	-0.007324	-0.011597
48.524	0.021667	-0.080414	0.29984	-0.009155	-0.003357	0.077057	-0.25467	0.002594	-0.03952	0.41626	-0.006256	-0.026398	-0.00351	0.13794	0.005341	0.13916	-0.026855	-0.37949	-0.11765	-0.060883	0.22446	0.112	-0.21286	0.056458	-0.032959	-0.010834	-0.038605	-0.00885	1.0269	-0.10178	-0.003357	-0.01709
